<?xml version="1.0"?>
<svg id="Logo" xmlns="http://www.w3.org/2000/svg" viewBox="0 0 4844.81 5072.02">
  <defs>
    
  </defs>
  <path class="cls-1" d="M180.37,2743.99c0,151.71,2,1117.37,2,1117.37l830.44-1.34-.13-1186.73s-70.3-626.3,543.12-1116.99c380.11-304.06,725.63-356.01,1007.55-356.01l1057.27-4.5-.87-789.7s-849.05-2.83-1131.99,2.69c-349.96,6.83-774.49,28.39-1330.51,435.93C500.55,1326.07,180.37,1941.95,180.37,2743.99Z"></path>
  <path class="cls-2" d="M1910.37,1653.53c12.98-5.27-346.73,393.84-215.83,923.34,121.54,491.62,604.69,771.06,952.93,771.06s973.75,2.89,973.75,2.89l-2.77,513.22-2337.81-2.07s1.99-899.99,2.07-1199.98c.1-327.47,22.18-762.55,627.66-1008.45Z"></path>
  <circle class="cls-1" cx="2752.09" cy="2286.87" r="800"></circle>
</svg>